<svg xmlns="http://www.w3.org/2000/svg" version="1.1" xmlns:xlink="http://www.w3.org/1999/xlink" xmlns:svgjs="http://svgjs.dev/svgjs" width="100%" height="100%" viewBox="0 0 1000 600"><rect width="1000" height="600" x="0" y="0" fill="#141a46"/><g><circle r="166.66666666666666" cx="310.53383890787757" cy="332.7560604039834" fill="#ec8b5e" transform="matrix(0.8688569799666547,0,0,0.8688569799666547,0,10.882558011397222)"/><path d="M257.63085037106424 257.7560628046811L359.208228248152 257.7560628046811Q358.9701330172652 266.32749111660644 358.4344187477698 275.0179670439752Q357.8987044782745 283.6786810674831 356.8272759392839 292.4584427064344L356.8272759392839 292.4584427064344L351.26179991730453 292.4584427064344L342.48203827835323 268.88701484863975L295.75584921681565 268.88701484863975L295.75584921681565 325.67272741514523L330.69632434945584 325.67272741514523L339.05941933435525 309.83939456117207L344.4165620293086 309.83939456117207Q345.69632389532524 331.0298701100986 344.4165620293086 353.1132027748507L344.4165620293086 353.1132027748507L339.05941933435525 353.1132027748507L330.69632434945584 336.8334413629648L295.75584921681565 336.8334413629648L295.75584921681565 396.62510621941635L345.0415620103865 396.62510621941635L355.5475140732672 370.9108212836402L360.9046567682206 370.9108212836402Q362.422513865124 379.8989162496175 363.0475138462019 389.1251064464816Q363.7022757311407 398.32153473948483 363.2558471732279 407.75605826337494L363.2558471732279 407.75605826337494L257.63085037106424 407.75605826337494L257.63085037106424 401.53582035645684Q265.130850143999 398.1132014124589 275.19037364896695 396.3870109885295L275.19037364896695 396.3870109885295L275.19037364896695 269.33344340655253Q270.90465949300426 268.4703481945878 266.4106120100156 267.0715387131278Q261.91656452702694 265.67272923166774 257.63085037106424 263.97630071159915L257.63085037106424 263.97630071159915L257.63085037106424 257.7560628046811Z " fill="#141a46" transform="matrix(0.8688569799666547,0,0,0.8688569799666547,0,10.882558011397222)"/><path d="M560.5338425982345 267.95607496481335L653.6156543240721 267.95607496481335Q653.3974725210229 275.81061987458224 652.9065634641623 283.7742556858757Q652.4156544073019 291.71061877178806 651.4338362935807 299.75607275922493L651.4338362935807 299.75607275922493L646.3338366473072 299.75607275922493L638.2883826598703 278.15607425736044L595.4702038114774 278.15607425736044L595.4702038114774 330.19243428457935L627.488383408938 330.19243428457935L635.1520192410389 315.6833443818118L640.0611098096446 315.6833443818118Q641.2338370010336 335.10152485318486 640.0611098096446 355.3378870859923L640.0611098096446 355.3378870859923L635.1520192410389 355.3378870859923L627.488383408938 340.4197063025076L595.4702038114774 340.4197063025076L595.4702038114774 395.21061159322187L640.6338370426485 395.21061159322187L650.2611091021917 371.64697686391514L655.1701996707972 371.64697686391514Q656.5611086652355 379.88333992902005 657.1338358982393 388.33788479717407Q657.7338358566245 396.7651569399469 657.3247449759074 405.41061088576896L657.3247449759074 405.41061088576896L560.5338425982345 405.41061088576896L560.5338425982345 399.71061128111023Q567.4065693942822 396.57424786227887 576.6247505731083 394.99242979017265L576.6247505731083 394.99242979017265L576.6247505731083 278.56516513807753Q572.6974781182238 277.7742561020244 568.5792965856714 276.49243800911074Q564.461115053119 275.21061991619706 560.5338425982345 273.656074569472L560.5338425982345 273.656074569472L560.5338425982345 267.95607496481335ZM754.5247382342974 317.04698065086893L727.6338310084914 352.77425090016493L758.670192492231 395.78333882622576Q761.3974650303452 396.7651569399469 764.070192117697 397.85606595519255Q766.7156464796678 398.9197022450571 769.0611008624461 400.50152031716334L769.0611008624461 400.50152031716334L769.0611008624461 405.41061088576896L728.8065581998806 405.41061088576896L728.8065581998806 400.6924293948314Q731.5611034633758 399.13788404810623 733.9065578461541 397.85606595519255Q736.2792849543134 396.57424786227887 738.6247393370917 395.78333882622576L738.6247393370917 395.78333882622576L716.8338317575592 363.5742501510971L694.8520151003587 395.78333882622576Q697.5792876384729 396.7651569399469 699.9520147466322 397.937884131336Q702.2974691294105 399.13788404810623 704.6701962375698 400.50152031716334L704.6701962375698 400.50152031716334L704.6701962375698 405.41061088576896L671.070198568003 405.41061088576896L671.070198568003 400.50152031716334Q676.5792890949937 397.17424782066405 682.0883796219842 395.78333882622576L682.0883796219842 395.78333882622576L711.3247412305685 356.7015233550494L681.8701978189351 317.04698065086893Q679.1429252808209 316.0651625371478 676.8792890741862 314.97425352190214Q674.6156528675514 313.91061723203757 672.2701984847732 312.32879915993135L672.2701984847732 312.32879915993135L672.2701984847732 307.2287995136578L711.7338321112857 307.2287995136578L711.7338321112857 312.1378900822633Q709.3611050031262 313.71970815436964 707.1247415218727 314.97425352190214Q704.8611053152379 316.2560716148158 702.1065600517426 317.04698065086893L702.1065600517426 317.04698065086893L722.5338313622178 346.5015240625022L742.552011791976 317.04698065086893Q735.8701940735963 314.8924353457587 732.733830654765 312.32879915993135L732.733830654765 312.32879915993135L732.733830654765 307.2287995136578L765.5429192882788 307.2287995136578L765.5429192882788 312.32879915993135Q761.8065559110623 314.8924353457587 754.5247382342974 317.04698065086893L754.5247382342974 317.04698065086893ZM849.9792770682944 388.9106120301781L852.5156405287406 391.66515729367336Q848.9974589545733 398.53788408972116 841.0338231432797 403.14697467913413Q833.0701873319863 407.7560652685471 822.4883698841032 407.7560652685471L822.4883698841032 407.7560652685471Q810.8974615971179 407.7560652685471 802.3610985528204 404.1287927928553Q793.7974627831419 400.50152031716334 788.1247359038643 393.73788442264015Q782.4247362992056 386.9469758027358 779.5611001341857 377.4287946447173Q776.724736694547 367.9106134866987 776.724736694547 356.3197051997133L776.724736694547 356.3197051997133Q776.724736694547 331.3924342013496 788.8883722145363 318.1378896661146Q801.0792804599067 304.88334513087955 822.0792790033861 304.88334513087955L822.0792790033861 304.88334513087955Q831.7065510629292 304.88334513087955 839.2610959935056 306.5469813791292Q846.8156409240819 308.21061762737895 852.1338223734045 310.96516289087424L852.1338223734045 310.96516289087424Q851.5338224150195 317.4287988062049 849.9792770682944 325.50152551902295Q848.3974589961881 333.5469795064598 846.0520046134098 338.8378882304014L846.0520046134098 338.8378882304014L840.7338231640872 338.8378882304014L832.4974600989823 315.4651625787627Q831.1065511045441 314.48334446504157 829.361096680151 313.992435408181Q827.5883695303768 313.5015263513204 823.4701879978244 313.5015263513204L823.4701879978244 313.5015263513204Q810.1065525610647 313.5015263513204 802.852007609681 323.2378893123881Q795.5701899329162 332.94697954807464 795.5701899329162 356.1287961220454L795.5701899329162 356.1287961220454Q795.5701899329162 363.5742501510971 797.6429170618829 370.665158750194Q799.6883714654685 377.72879462390983 803.9156438995456 383.31970332704395Q808.1429163336226 388.9106120301781 814.5247340728098 392.26515725205843Q820.906551811997 395.59242974855783 829.361096680151 395.59242974855783L829.361096680151 395.59242974855783Q836.2338234761988 395.59242974855783 841.3338231224724 393.62879352111554Q846.4338227687459 391.66515729367336 849.9792770682944 388.9106120301781L849.9792770682944 388.9106120301781ZM941.4792707220257 388.528793874842L944.2338159855211 391.66515729367336Q942.6519979134147 394.99242979017265 939.3247254169154 397.937884131336Q935.970180195035 400.8833384724994 931.6610895848145 403.0651565029907Q927.3247262492131 405.2197018081009 922.2247266029395 406.5015199010146Q917.124726956666 407.7560652685471 911.8338182327244 407.7560652685471L911.8338182327244 407.7560652685471Q900.242909945739 407.7560652685471 891.406546922249 404.1287927928553Q882.570183898759 400.50152031716334 876.6792752164323 393.73788442264015Q870.7883665341056 386.9469758027358 867.7338212914178 377.5378855462418Q864.706548774111 368.10152256436675 864.706548774111 356.3197051997133L864.706548774111 356.3197051997133Q864.706548774111 331.1742523983005 876.2701843357153 318.02879876458996Q887.8610926227005 304.88334513087955 909.079272969229 304.88334513087955L909.079272969229 304.88334513087955Q915.9519997652768 304.88334513087955 922.6338174836566 306.73789045679723Q929.2883624766553 308.5924357827149 934.4974530244534 312.92879911831653Q939.7065435722515 317.23788972853686 942.9519978926074 324.4106165037772Q946.1974522129632 331.5833432790175 946.1974522129632 342.19243345228176L946.1974522129632 342.19243345228176Q946.1974522129632 345.51970594878117 945.8974522337707 348.95606934680507Q945.5974522545781 352.39243274482897 944.806543218525 356.3197051997133L944.806543218525 356.3197051997133L883.5520020124801 356.3197051997133Q883.5520020124801 364.55606826481824 885.5974564160657 371.72879504005857Q887.6701835450325 378.9015218152989 891.7883650775849 384.1924305392405Q895.9065466101375 389.51061198856314 902.2065461731812 392.5378845058699Q908.4792730108439 395.59242974855783 916.933817878998 395.59242974855783L916.933817878998 395.59242974855783Q923.8065446750456 395.59242974855783 930.8701805487615 393.62879352111554Q937.9338164224772 391.66515729367336 941.4792707220257 388.528793874842L941.4792707220257 388.528793874842ZM908.2883639331759 313.5015263513204L908.2883639331759 313.5015263513204Q897.1065465269077 313.5015263513204 891.215637844581 321.0833440072779Q885.3247291622544 328.6378889378542 884.1247292454841 347.6742512538914L884.1247292454841 347.6742512538914L927.3247262492131 347.6742512538914Q927.5429080522621 345.90152410411713 927.6247262284056 344.2378878558675Q927.7338171299301 342.57425160761784 927.7338171299301 340.9924335355115L927.7338171299301 340.9924335355115Q927.7338171299301 328.4469798601863 923.0156356389926 320.9742531057534Q918.2974541480551 313.5015263513204 908.2883639331759 313.5015263513204ZM1007.070175263672 400.50152031716334L1007.070175263672 405.41061088576896L963.4610873792261 405.41061088576896L963.4610873792261 400.50152031716334Q969.9519960199378 397.3651568983321 976.4156319352686 395.78333882622576L976.4156319352686 395.78333882622576L976.4156319352686 271.5015292643618L961.4974511517839 269.9197111922556L961.4974511517839 264.81971154598205Q966.5974507980574 262.44698443782266 974.2610866301583 260.70153001342953Q981.9247224622592 258.92880286365533 989.1792674136431 257.7560756722662L989.1792674136431 257.7560756722662L994.0883579822486 257.7560756722662L994.0883579822486 395.78333882622576Q1000.5792666229603 397.3651568983321 1007.070175263672 400.50152031716334L1007.070175263672 400.50152031716334Z " fill="#ec8b5e" transform="matrix(0.8688569799666547,0,0,0.8688569799666547,0,10.882558011397222)"/></g></svg>